# Blender v3.1.2 OBJ File: ''
# www.blender.org
mtllib duck.mtl
o Duck.001
v 0.096822 0.553436 0.014759
v 0.148751 0.545969 0.194813
v -0.044723 0.765205 -0.156733
v -0.066613 0.977025 -0.081336
v 0.150659 0.932310 -0.067079
v 0.343493 0.374719 0.180254
v 0.050565 0.604147 -0.470151
v 0.033107 0.662624 0.309640
v 0.231840 0.731309 0.182340
v 0.062160 0.961995 0.266299
v 0.128657 0.175133 -0.463682
v 0.104498 0.778318 0.411830
v 0.142113 0.777537 0.365276
v 0.003644 0.907520 0.494650
v -0.029331 0.595566 0.307339
v 0.333274 0.079866 -0.129521
v 0.296378 0.175815 -0.306811
v 0.212968 0.208221 0.429037
v 0.099096 0.007243 -0.303405
v 0.311171 0.052103 0.196610
v 0.233086 0.349227 -0.276907
v 0.169737 0.918299 0.233586
v 0.003264 0.898272 0.339649
v -0.013339 0.560582 -0.029442
v -0.075578 0.494496 -0.277860
v -0.298074 0.238926 -0.302406
v -0.155916 0.524724 0.149691
v -0.217491 0.912100 0.091108
v -0.003779 1.073554 0.172500
v -0.296069 0.361385 0.283103
v -0.036522 0.768376 0.471804
v -0.216844 0.721854 0.210939
v -0.164709 0.907635 0.236617
v -0.062493 0.959982 0.270516
v 0.035956 0.013219 0.370335
v -0.033417 0.625902 -0.469945
v -0.196318 0.737356 -0.012401
v -0.130060 0.775551 0.384774
v -0.281534 0.035982 -0.128709
v -0.319817 0.065945 0.214161
v -0.163374 0.205292 0.471542
v -0.094985 0.021140 -0.349441
v -0.381940 0.260487 0.017615
v -0.115629 0.288567 -0.494404
vt 0.320920 0.222098
vt 0.234351 0.283176
vt 0.209139 0.097806
vt 0.380335 0.232826
vt 0.387775 0.279040
vt 0.345267 0.273078
vt 0.339211 0.408829
vt 0.397235 0.358511
vt 0.406111 0.426025
vt 0.386999 0.234062
vt 0.389327 0.239596
vt 0.117670 0.268237
vt 0.165462 0.485975
vt 0.433016 0.172663
vt 0.394343 0.210924
vt 0.378519 0.211818
vt 0.391899 0.562477
vt 0.389339 0.226484
vt 0.387781 0.234008
vt 0.385675 0.224321
vt 0.384803 0.215563
vt 0.389798 0.217470
vt 0.341339 0.089880
vt 0.902555 0.005554
vt 0.918531 0.034889
vt 0.879435 0.035676
vt 0.385724 0.214170
vt 0.377372 0.217065
vt 0.381081 0.224066
vt 0.368771 0.221329
vt 0.378541 0.220307
vt 0.261890 0.701892
vt 0.356187 0.846333
vt 0.197296 0.816141
vt 0.551567 0.268706
vt 0.444509 0.239769
vt 0.394284 0.226768
vt 0.639223 0.469604
vt 0.499993 0.413196
vt 0.539790 0.076112
vt 0.401516 0.223674
vt 0.408364 0.216428
vt 0.394938 0.217739
vt 0.397551 0.216811
vt 0.454357 0.335145
vt 0.889203 0.085038
vt 0.845138 0.060360
vt 0.794763 0.093793
vt 0.889458 0.120959
vt 0.641284 0.219879
vt 0.513816 0.707289
vt 0.002101 0.435956
vt 0.952339 0.067837
vt 0.570933 0.837179
vn 0.8967 0.2334 0.3762
vn 0.9915 -0.1165 0.0574
vn 0.5475 -0.2742 0.7906
vn 0.7690 0.5389 -0.3437
vn -0.2996 0.3347 -0.8934
vn 0.7453 0.3445 -0.5708
vn 0.6796 0.4203 -0.6012
vn -0.1544 -0.1401 -0.9780
vn -0.3272 0.6533 -0.6827
vn 0.5048 0.7625 -0.4047
vn -0.3525 0.9141 0.2004
vn 0.8037 -0.1084 0.5851
vn 0.7634 0.5464 0.3444
vn -0.1224 -0.0823 0.9891
vn -0.4011 -0.1004 0.9105
vn 0.5349 -0.0372 0.8441
vn 0.0046 0.9800 0.1990
vn -0.3880 -0.1032 -0.9159
vn -0.2472 0.8929 -0.3762
vn 0.4077 -0.2897 -0.8660
vn 0.2304 -0.9019 -0.3654
vn -0.2740 -0.8101 -0.5183
vn 0.3288 -0.6025 0.7272
vn -0.1386 0.2265 0.9641
vn 0.0538 -0.8372 0.5442
vn 0.7216 -0.6469 0.2465
vn 0.8378 -0.1140 -0.5340
vn 0.8841 0.4129 0.2187
vn 0.8318 -0.5275 -0.1730
vn 0.3017 0.6544 0.6934
vn 0.0034 0.8464 0.5326
vn -0.9357 -0.1866 0.2994
vn -0.9399 0.3412 -0.0149
vn -0.8876 0.0641 -0.4562
vn -0.7257 0.5061 0.4661
vn -0.8921 0.4360 -0.1189
vn -0.9782 0.2026 -0.0455
vn -0.8482 0.3163 0.4249
vn -0.5774 -0.8016 -0.1550
vn -0.7441 -0.5852 0.3223
vn -0.8287 -0.1727 -0.5323
vn -0.0251 0.5786 0.8152
vn -0.7246 -0.0752 0.6851
vn -0.3335 0.6286 0.7026
usemtl Material.002
s 1
f 2/1/1 9/2/2 12/3/3
f 21/4/4 24/5/5 1/6/6
f 5/7/7 3/8/8 4/9/9
f 1/6/6 3/8/8 5/7/7
f 21/4/4 7/10/10 25/11/11
f 9/2/2 13/12/12 12/3/3
f 22/13/13 13/12/12 9/2/2
f 22/13/13 9/2/2 5/7/7
f 15/14/14 41/15/15 18/16/16
f 29/17/17 22/13/13 5/7/7
f 44/18/18 36/19/19 7/10/10
f 11/20/20 19/21/21 42/22/22
f 8/23/23 2/1/1 12/3/3
f 1/6/6 24/5/5 3/8/8
f 8/24/23 12/25/3 31/26/24
f 35/27/25 19/21/21 20/28/26
f 18/16/16 41/15/15 35/27/25
f 17/29/27 21/4/4 6/30/28
f 11/20/20 17/29/27 19/21/21
f 19/21/21 16/31/29 20/28/26
f 22/13/13 29/17/17 10/32/30
f 17/29/27 6/30/28 16/31/29
f 1/6/6 9/2/2 2/1/1
f 23/33/31 22/34/13 10/32/30
f 32/35/32 27/36/33 15/14/14
f 24/5/5 25/11/11 26/37/34
f 32/35/32 33/38/35 28/39/36
f 28/39/36 4/9/9 3/8/8
f 7/10/10 36/19/19 25/11/11
f 15/14/14 31/40/24 32/35/32
f 8/23/23 31/40/24 15/14/14
f 19/21/21 35/27/25 42/22/22
f 43/41/37 41/15/15 30/42/38
f 39/43/39 43/41/37 26/37/34
f 43/41/37 40/44/40 41/15/15
f 27/36/33 43/41/37 30/42/38
f 42/22/22 39/43/39 26/37/34
f 29/17/17 28/39/36 33/38/35
f 27/36/33 32/35/32 37/45/41
f 12/25/3 14/46/42 38/47/43
f 33/48/35 38/47/43 23/49/31
f 33/38/35 32/35/32 38/50/43
f 28/39/36 37/45/41 32/35/32
f 34/51/44 29/17/17 33/38/35
f 21/4/4 1/6/6 6/30/28
f 21/4/4 25/11/11 24/5/5
f 13/12/12 22/13/13 23/52/31
f 5/7/7 4/9/9 29/17/17
f 1/6/6 5/7/7 9/2/2
f 18/16/16 20/28/26 6/30/28
f 35/27/25 20/28/26 18/16/16
f 6/30/28 15/14/14 18/16/16
f 7/10/10 21/4/4 11/20/20
f 19/21/21 17/29/27 16/31/29
f 11/20/20 44/18/18 7/10/10
f 20/28/26 16/31/29 6/30/28
f 2/1/1 15/14/14 6/30/28
f 8/23/23 15/14/14 2/1/1
f 23/49/31 14/46/42 13/53/12
f 13/53/12 14/46/42 12/25/3
f 21/4/4 17/29/27 11/20/20
f 6/30/28 1/6/6 2/1/1
f 24/5/5 26/37/34 27/36/33
f 3/8/8 37/45/41 28/39/36
f 27/36/33 37/45/41 3/8/8
f 27/36/33 3/8/8 24/5/5
f 30/42/38 41/15/15 15/14/14
f 34/51/44 10/32/30 29/17/17
f 23/33/31 10/32/30 34/51/44
f 29/17/17 4/9/9 28/39/36
f 36/19/19 26/37/34 25/11/11
f 42/22/22 44/18/18 11/20/20
f 32/35/32 31/40/24 38/50/43
f 27/36/33 30/42/38 15/14/14
f 43/41/37 27/36/33 26/37/34
f 40/44/40 43/41/37 39/43/39
f 35/27/25 41/15/15 40/44/40
f 35/27/25 40/44/40 42/22/22
f 39/43/39 42/22/22 40/44/40
f 26/37/34 36/19/19 44/18/18
f 26/37/34 44/18/18 42/22/22
f 38/47/43 31/26/24 12/25/3
f 38/47/43 14/46/42 23/49/31
f 23/33/31 34/51/44 33/54/35
